<?xml version="1.0" encoding="UTF-8" standalone="no"?>
<!-- Created with Inkscape (http://www.inkscape.org/) -->

<svg
   width="210mm"
   height="297mm"
   viewBox="0 0 210 297"
   version="1.1"
   id="svg5"
   xml:space="preserve"
   inkscape:version="1.2.2 (732a01da63, 2022-12-09)"
   sodipodi:docname="logo.svg"
   xmlns:inkscape="http://www.inkscape.org/namespaces/inkscape"
   xmlns:sodipodi="http://sodipodi.sourceforge.net/DTD/sodipodi-0.dtd"
   xmlns:xlink="http://www.w3.org/1999/xlink"
   xmlns="http://www.w3.org/2000/svg"
   xmlns:svg="http://www.w3.org/2000/svg"><sodipodi:namedview
     id="namedview7"
     pagecolor="#ffffff"
     bordercolor="#000000"
     borderopacity="0.25"
     inkscape:showpageshadow="2"
     inkscape:pageopacity="0.0"
     inkscape:pagecheckerboard="0"
     inkscape:deskcolor="#d1d1d1"
     inkscape:document-units="mm"
     showgrid="false"
     inkscape:zoom="2.3786088"
     inkscape:cx="371.43561"
     inkscape:cy="628.51866"
     inkscape:window-width="1280"
     inkscape:window-height="1001"
     inkscape:window-x="1912"
     inkscape:window-y="56"
     inkscape:window-maximized="1"
     inkscape:current-layer="layer1" /><defs
     id="defs2"><linearGradient
       inkscape:collect="always"
       id="linearGradient10302"><stop
         style="stop-color:#9708cc;stop-opacity:1;"
         offset="0"
         id="stop10298" /><stop
         style="stop-color:#9607cc;stop-opacity:0.29411766;"
         offset="1"
         id="stop10300" /></linearGradient><linearGradient
       inkscape:collect="always"
       id="linearGradient10270"><stop
         style="stop-color:#9708cc;stop-opacity:1;"
         offset="0"
         id="stop10266" /><stop
         style="stop-color:#9708cc;stop-opacity:0;"
         offset="1"
         id="stop10268" /></linearGradient><linearGradient
       inkscape:collect="always"
       xlink:href="#linearGradient10270"
       id="linearGradient10272"
       x1="120.35572"
       y1="135.26114"
       x2="107.23006"
       y2="165.07198"
       gradientUnits="userSpaceOnUse" /><linearGradient
       inkscape:collect="always"
       xlink:href="#linearGradient10270"
       id="linearGradient10274"
       x1="120.35572"
       y1="135.26114"
       x2="107.23006"
       y2="165.07198"
       gradientUnits="userSpaceOnUse" /><linearGradient
       inkscape:collect="always"
       xlink:href="#linearGradient10302"
       id="linearGradient10276"
       x1="103.67055"
       y1="160.40013"
       x2="96.774017"
       y2="162.62483"
       gradientUnits="userSpaceOnUse" /></defs><g
     inkscape:label="Ebene 1"
     inkscape:groupmode="layer"
     id="layer1"><path
       style="fill:url(#linearGradient10272);fill-opacity:1;fill-rule:nonzero;stroke:none;stroke-width:1"
       d="m 103.30501,159.27678 c -0.22779,-0.59361 0.66757,-1.44535 1.51938,-1.44535 2.23927,0 2.53384,-0.72653 0.92111,-2.2718 -1.75137,-1.67811 -4.00737,-2.65848 -8.419358,-3.65874 l -0.727604,-0.16496 0.004,-1.11943 c 0.0021,-0.6157 0.116438,-1.29721 0.253797,-1.51448 l 0.249743,-0.39503 1.796729,0.46472 c 7.260453,1.87791 12.197853,7.04593 9.309353,9.74419 -0.78249,0.99763 -1.59593,0.76762 -2.78643,0.76762 -1.52347,0 -1.99974,-0.0913 -2.12077,-0.40674 z"
       id="path1844"
       sodipodi:nodetypes="csssccscscccc" /><path
       style="fill:url(#linearGradient10274);fill-opacity:1;stroke:none;stroke-width:1;stroke-opacity:1;fill-rule:nonzero"
       d="m 94.755554,159.04599 c -1.496793,-3.93686 -1.341805,-10.61304 0.299905,-12.91861 1.624412,-2.28127 4.514008,-1.4784 5.681481,1.5786 0.75838,1.98578 -0.823023,2.15263 -2.078923,0.21934 -1.904391,-2.93153 -3.150634,2.14542 -1.792681,7.30305 0.943909,3.58505 0.946724,3.31006 -0.04006,3.91167 -1.168903,0.71263 -1.773462,0.68517 -2.069719,-0.094 z"
       id="path1846"
       sodipodi:nodetypes="ssssssss" /><path
       style="fill:url(#linearGradient10276);stroke-width:1;fill-opacity:1;stroke:none;fill-rule:nonzero"
       d="m 92.232913,162.28841 c -1.51679,-0.82962 -1.657329,-2.90648 -0.330729,-4.88753 1.465138,-2.18794 2.754971,-1.218 1.647177,1.23865 -1.465541,3.24999 2.990183,1.81586 7.347079,-2.36475 l 2.31352,-2.21992 1.05991,0.70142 c 1.4034,0.92872 1.36132,1.10985 -0.72603,3.12501 -3.965433,3.82831 -8.873106,5.7405 -11.310927,4.40712 z"
       id="path1848"
       sodipodi:nodetypes="sssscsss" /><path
       style="fill:#9708cc;stroke-width:1;fill-opacity:1;stroke:none;fill-rule:nonzero"
       d="m 77.395477,166.47168 c -0.08184,-0.21329 -0.110653,-0.78608 -0.06402,-1.27287 l 0.08479,-0.88509 h 1.058333 1.058334 v 1.19063 1.19062 l -0.994314,0.0823 c -0.687083,0.0568 -1.040294,-0.0376 -1.143122,-0.30554 z"
       id="path1850"
       sodipodi:nodetypes="ssccccccss" /><path
       id="path1854"
       style="fill:#9708cc;fill-opacity:1;fill-rule:nonzero;stroke:none;stroke-width:1"
       d="m 113.28205,167.46756 c -3.95205,0 -4.19354,4.38945 -0.3142,5.71128 0.68464,0.23328 1.24489,0.53169 1.24489,0.66353 0,0.32704 -1.51583,0.30522 -1.71979,-0.0248 -0.28727,-0.46481 -1.07942,-0.28483 -1.71256,0.38912 l -0.61392,0.65371 0.36949,0.44545 c 0.2032,0.24485 0.72662,0.60088 1.16324,0.79117 1.97882,0.86241 4.89479,-0.0274 4.89479,-1.49345 0,-0.77948 0.41735,-0.82773 0.81028,-0.0935 0.98418,1.83895 4.52731,2.54803 6.26164,1.25316 1.42042,-1.06049 0.71513,-1.75246 -1.8619,-1.82676 -2.9862,-0.086 -2.38255,-0.64803 0.69608,-0.64803 h 2.83652 l 0.28112,-0.61701 c 0.63159,-1.3862 -0.82082,-4.10467 -2.58693,-4.8426 -2.91739,-1.21897 -6.43681,0.9711 -6.43681,4.00544 v 0.75964 l -0.73949,-0.70848 c -0.40677,-0.38971 -1.30943,-0.90278 -2.00556,-1.13998 -0.90614,-0.30874 -1.1843,-0.51225 -0.97979,-0.71676 0.2045,-0.20455 0.55792,-0.18738 1.24334,0.0605 l 0.95704,0.34623 0.66715,-0.66714 c 1.11896,-1.11897 -0.14176,-2.30064 -2.45463,-2.30064 z m 7.89822,1.98438 c 0.50635,0.003 1.01758,0.12047 1.43299,0.38033 1.54369,0.9657 1.15608,1.33946 -1.38906,1.33946 -1.70751,0 -2.24896,-0.0854 -2.24896,-0.35554 0,-0.81879 1.09106,-1.37012 2.20503,-1.36425 z m -4.48965,3.39875 c 0.0241,0.004 0.0526,0.0444 0.0842,0.12351 0.0764,0.191 0.0667,0.41956 -0.0212,0.50746 -0.088,0.0879 -0.15,-0.0684 -0.1385,-0.34726 0.008,-0.19265 0.0353,-0.28978 0.0754,-0.28371 z" /><path
       id="path11479"
       style="fill:#000000;fill-opacity:1;fill-rule:nonzero;stroke:none;stroke-width:1"
       inkscape:transform-center-x="0.055617245"
       inkscape:transform-center-y="-0.5005552"
       d="m 112.9933,167.26616 c -4.12798,0 -4.38019,4.58485 -0.32815,5.96553 0.71511,0.24366 1.30018,0.55527 1.30018,0.69298 0,0.34162 -1.58323,0.31888 -1.79627,-0.0258 -0.30006,-0.4855 -1.12771,-0.29725 -1.78904,0.4067 l -0.6413,0.68264 0.38602,0.46509 c 0.21225,0.25575 0.75885,0.62755 1.21491,0.82631 2.06692,0.9008 5.11287,-0.0288 5.11287,-1.56011 0,-0.81413 0.43604,-0.86404 0.84646,-0.0972 1.02799,1.92081 4.72863,2.66149 6.54017,1.30897 1.48365,-1.1077 0.74667,-1.83081 -1.9451,-1.90841 -3.11913,-0.0899 -2.48859,-0.67645 0.72709,-0.67645 h 2.96312 l 0.29352,-0.6444 c 0.6597,-1.44791 -0.8569,-4.28783 -2.70164,-5.05861 -3.04727,-1.27324 -6.72362,1.01431 -6.72362,4.18373 v 0.79323 l -0.77256,-0.74001 c -0.42488,-0.40705 -1.36732,-0.94286 -2.09445,-1.19062 -0.94647,-0.32248 -1.23732,-0.53518 -1.02371,-0.74879 0.21361,-0.21365 0.5827,-0.19584 1.29863,0.063 l 0.99994,0.36174 0.6966,-0.6966 c 1.16878,-1.16878 -0.14783,-2.40296 -2.56367,-2.40296 z m 7.35304,2.18592 c 0.50635,0.003 1.01706,0.12047 1.43247,0.38034 1.54369,0.9657 1.15608,1.33945 -1.38906,1.33945 -1.70751,0 -2.24896,-0.0859 -2.24896,-0.35605 0,-0.81879 1.09157,-1.36961 2.20555,-1.36374 z m -3.79305,3.437 c 0.0251,0.004 0.0547,0.046 0.0879,0.12867 0.0798,0.1995 0.0701,0.43788 -0.0217,0.52968 -0.0918,0.0918 -0.15721,-0.0709 -0.14521,-0.36225 0.008,-0.20122 0.0372,-0.30245 0.0791,-0.2961 z" /><path
       style="fill:#9708cc;fill-opacity:1;fill-rule:nonzero;stroke:none;stroke-width:1"
       d="m 102.81624,176.09984 c -1.6587,-0.68608 -2.24895,-2.1906 -2.24895,-5.73242 v -2.7754 l 1.25676,0.0806 1.25677,0.0807 0.0698,2.64583 c 0.0809,1.19857 -0.22492,2.39988 0.62462,3.10885 0.84954,0.70897 1.81188,0.40702 2.31105,0.008 0.49916,-0.39877 0.30182,-2.77857 0.30182,-3.36966 v -2.52556 h 1.19718 1.19718 l -0.0727,4.29947 -0.0727,4.29948 -0.87718,0.0842 c -0.48245,0.0463 -1.02222,-0.0362 -1.1995,-0.1833 -0.20207,-0.1677 -0.46707,-0.17595 -0.71032,-0.0221 -0.47394,0.29975 -2.31018,0.3004 -3.03383,0.001 z"
       id="path1856"
       sodipodi:nodetypes="cscccczzzcccccssscc" /><path
       style="fill:#9708cc;stroke-width:1;fill-opacity:1;stroke:none;fill-rule:nonzero"
       d="m 97.989231,176.09435 c -2.046968,-0.48595 -2.449026,-1.52949 -2.449026,-6.35647 0,-4.06811 -0.0338,-3.98487 1.649375,-4.06176 l 0.864167,-0.0395 0.07902,1.36157 c 0.06203,1.06877 0.185581,1.38944 0.57453,1.49115 1.12801,0.29498 1.22546,2.57124 0.11009,2.57124 h -0.660342 l 0.08064,1.25677 0.08064,1.25677 0.910102,0.13229 0.910113,0.13229 0.2303,0.89217 c 0.41001,1.58832 -0.12973,1.89758 -2.379617,1.36346 z"
       id="path1858"
       sodipodi:nodetypes="ssscssscccccsss" /><path
       style="fill:#9708cc;stroke-width:1;fill-opacity:1;stroke:none;fill-rule:nonzero"
       d="m 89.979827,175.85839 c -1.154663,-0.61856 -1.253751,-1.0785 -0.404271,-1.87655 l 0.667749,-0.62731 0.676523,0.30824 c 0.83733,0.38151 1.70996,0.39956 1.70996,0.0354 0,-0.15009 -0.208359,-0.33675 -0.463021,-0.41481 -3.474475,-1.06498 -4.537807,-3.31932 -2.45241,-5.19928 1.254914,-1.1313 4.707528,-0.82296 5.201582,0.46453 0.337315,0.87903 -1.671214,2.23463 -2.153859,1.4537 -0.215853,-0.34926 -1.455209,-0.34219 -1.455209,0.008 0,0.15009 0.20836,0.33878 0.463021,0.41931 3.038965,0.961 4.257644,2.70013 3.233304,4.61413 -0.685972,1.28175 -3.345955,1.71299 -5.023369,0.81439 z"
       id="path1860"
       sodipodi:nodetypes="cscssssssssscc" /><path
       style="fill:#9708cc;fill-opacity:1;fill-rule:nonzero;stroke:none;stroke-width:1"
       d="m 81.860862,175.83381 c -0.712318,-0.39792 -1.266395,-1.07182 -1.457021,-1.87177 -0.356408,-1.42646 -0.287556,-2.9084 -0.319906,-4.36718 -0.0073,-0.61385 -0.01457,-1.2277 -0.02186,-1.84155 0.837844,-0.0538 1.675691,-0.10759 2.513542,-0.1613 0,0 -0.364187,4.51813 0,5.28226 0.364187,0.76413 1.985351,1.73758 2.880563,0.46571 0.895212,-1.27187 0.351514,-4.03215 0.426729,-5.58668 h 2.38125 c 0.04855,2.77364 0.09711,5.54729 0.14566,8.32093 -0.569678,0.14685 -1.161434,0.3307 -1.749321,0.15415 -0.452809,-0.19415 -0.984231,-0.28381 -1.448333,-0.071 -0.99106,0.28568 -2.083953,0.21298 -3.040807,-0.1648 -0.11277,-0.0463 -0.218883,-0.11005 -0.310496,-0.15877 z"
       id="path1862"
       sodipodi:nodetypes="csccczzccccccc" /><path
       style="fill:#000000;fill-opacity:1;fill-rule:nonzero;stroke:none;stroke-width:1"
       d="m 76.385319,166.23082 c -0.08548,-0.22279 -0.115579,-0.82107 -0.06687,-1.32954 l 0.08857,-0.92449 h 1.105446 1.105448 v 1.24364 1.24362 l -1.038578,0.086 c -0.71767,0.0593 -1.086604,-0.0393 -1.19401,-0.31914 z"
       id="path11477"
       sodipodi:nodetypes="ssccccccss" /><path
       style="fill:#9708cc;fill-opacity:1;fill-rule:nonzero;stroke:none;stroke-width:1"
       d="m 76.119323,176.77972 c 0.951814,-0.29667 1.164631,-1.2836 1.164631,-5.33469 v -3.82401 h 1.190625 1.190625 v 4.37876 c 0,5.35906 -1.05498,6.15163 -2.883753,7.22625 -1.828773,1.07462 -1.736493,-2.03666 -0.662128,-2.44631 z"
       id="path1864"
       sodipodi:nodetypes="cscccszc" /><path
       style="fill:#000000;fill-opacity:1;fill-rule:nonzero;stroke:none;stroke-width:1"
       d="m 102.93774,176.2876 c -1.73254,-0.71663 -2.34907,-2.28812 -2.34907,-5.98761 v -2.89896 l 1.31271,0.0842 1.31272,0.0843 0.0729,2.76362 c 0.0845,1.25193 -0.23494,2.50671 0.65242,3.24725 0.88736,0.74053 1.89254,0.42514 2.41393,0.008 0.52138,-0.41652 0.31526,-2.90226 0.31526,-3.51967 v -2.63799 h 1.25047 1.25048 l -0.0759,4.49087 -0.0759,4.49088 -0.91623,0.0879 c -0.50393,0.0484 -1.06773,-0.0378 -1.2529,-0.19146 -0.21107,-0.17516 -0.48786,-0.18378 -0.74194,-0.0231 -0.49504,0.31309 -2.41302,0.31377 -3.16889,0.001 z"
       id="path11481"
       sodipodi:nodetypes="cscccczzzcccccssscc" /><path
       style="fill:#000000;fill-opacity:1;fill-rule:nonzero;stroke:none;stroke-width:1"
       d="m 97.895847,176.28186 c -2.138093,-0.50758 -2.558049,-1.59758 -2.558049,-6.63944 0,-4.24921 -0.03531,-4.16226 1.7228,-4.24258 l 0.902637,-0.0413 0.08254,1.42219 c 0.06479,1.11635 0.193842,1.45129 0.600106,1.55753 1.178226,0.30811 1.280014,2.6857 0.114991,2.6857 h -0.689738 l 0.08423,1.31272 0.08423,1.31272 0.950618,0.13818 0.950628,0.13818 0.24055,0.93188 c 0.42826,1.65903 -0.13551,1.98206 -2.485548,1.42416 z"
       id="path11483"
       sodipodi:nodetypes="ssscssscccccsss" /><path
       style="fill:#000000;fill-opacity:1;fill-rule:nonzero;stroke:none;stroke-width:1"
       d="m 89.529888,176.0354 c -1.206066,-0.6461 -1.309565,-1.12651 -0.422268,-1.96009 l 0.697475,-0.65524 0.70664,0.32197 c 0.874605,0.39849 1.786082,0.41734 1.786082,0.037 0,-0.15677 -0.217634,-0.35174 -0.483633,-0.43327 -3.629149,-1.11239 -4.739817,-3.46709 -2.561584,-5.43074 1.310779,-1.18166 4.917093,-0.8596 5.433141,0.48521 0.352331,0.91816 -1.745612,2.33411 -2.249743,1.51841 -0.225462,-0.36481 -1.51999,-0.35742 -1.51999,0.008 0,0.15677 0.217635,0.35386 0.483633,0.43798 3.174251,1.00378 4.447182,2.82033 3.377241,4.81953 -0.716509,1.33881 -3.494907,1.78925 -5.246994,0.85065 z"
       id="path11485"
       sodipodi:nodetypes="cscssssssssscc" /><path
       style="fill:#000000;fill-opacity:1;fill-rule:nonzero;stroke:none;stroke-width:1"
       d="m 81.04949,176.00972 c -0.744028,-0.41563 -1.322771,-1.11953 -1.521883,-1.95509 -0.372275,-1.48996 -0.300358,-3.03788 -0.334148,-4.5616 -0.0076,-0.64117 -0.01522,-1.28235 -0.02283,-1.92353 0.875142,-0.0562 1.750288,-0.11238 2.625438,-0.16848 0,0 -0.3804,4.71927 0,5.51741 0.380399,0.79815 2.073733,1.81494 3.008797,0.48645 0.935064,-1.32849 0.367162,-4.21165 0.445726,-5.83539 h 2.487256 c 0.05071,2.89712 0.101433,5.79424 0.152144,8.69136 -0.595038,0.15338 -1.213137,0.34542 -1.827195,0.16101 -0.472967,-0.20279 -1.028046,-0.29645 -1.512809,-0.0742 -1.035179,0.2984 -2.176724,0.22246 -3.176175,-0.17214 -0.11779,-0.0484 -0.228627,-0.11495 -0.324318,-0.16584 z"
       id="path11487"
       sodipodi:nodetypes="csccczzccccccc" /><path
       style="fill:#000000;fill-opacity:1;fill-rule:nonzero;stroke:none;stroke-width:1"
       d="m 75.052354,176.99774 c 0.994186,-0.30987 1.216477,-1.34074 1.216477,-5.57217 v -3.99425 h 1.243628 1.243629 v 4.57369 c 0,5.59763 -1.101945,6.42549 -3.01213,7.54795 -1.910184,1.12245 -1.813796,-2.12733 -0.691604,-2.55522 z"
       id="path11489"
       sodipodi:nodetypes="cscccszc" /></g></svg>
